<svg  xmlns="http://www.w3.org/2000/svg" xmlns:xlink="http://www.w3.org/1999/xlink" width="1022" height="200" viewBox="0 0 1046 224"><path transform="translate(0 100)" d="M77.6,-61.5Q77.6,-62.6 78.55,-63.55Q79.5,-64.5 80.6,-64.5L87.4,-64.5Q88.5,-64.5 89.45,-63.55Q90.4,-62.6 90.4,-61.5L90.4,-20.9Q90.4,-19.8 89.45,-18.85Q88.5,-17.9 87.4,-17.9L80.6,-17.9Q79.5,-17.9 78.55,-18.85Q77.6,-19.8 77.6,-20.9L77.6,-23.6L56.5,-23.6L56.5,6.4Q56.5,7.5 55.55,8.45Q54.6,9.4 53.5,9.4L46.5,9.4Q45.4,9.4 44.45,8.45Q43.5,7.5 43.5,6.4L43.5,-23.6L22.4,-23.6L22.4,-19.9Q22.4,-18.8 21.45,-17.85Q20.5,-16.9 19.4,-16.9L12.6,-16.9Q11.5,-16.9 10.55,-17.85Q9.6,-18.8 9.6,-19.9L9.6,-61.1Q9.6,-62.2 10.55,-63.15Q11.5,-64.1 12.6,-64.1L19.4,-64.1Q20.5,-64.1 21.45,-63.15Q22.4,-62.2 22.4,-61.1L22.4,-60.4L43.5,-60.4L43.5,-76.4Q43.5,-77.5 44.45,-78.45Q45.4,-79.4 46.5,-79.4L53.5,-79.4Q54.6,-79.4 55.55,-78.45Q56.5,-77.5 56.5,-76.4L56.5,-60.4L77.6,-60.4L77.6,-61.5ZM56.5,-28.9L77.6,-28.9L77.6,-55.1L56.5,-55.1L56.5,-28.9ZM22.4,-28.9L43.5,-28.9L43.5,-55.1L22.4,-55.1L22.4,-28.9Z"></path><path transform="translate(100 100)" d="M5.6,-61.1Q5.6,-61.7 6.1,-62.25Q6.6,-62.8 7.3,-62.8L47.3,-62.8Q46.9,-63.2 46.8,-63.7Q45.7,-65.9 43.85,-69Q42,-72.1 38.6,-76.6Q38.3,-77 38.45,-77.55Q38.6,-78.1 39,-78.6Q39.4,-79.1 40.05,-79.35Q40.7,-79.6 41.4,-79.5Q47.1,-78.1 51,-76.6Q54.9,-75.1 57.2,-73.4Q58.9,-72.2 58.95,-70.65Q59,-69.1 58.1,-67.2Q57.1,-65 54.9,-62.8L93.3,-62.8Q93.9,-62.8 94.45,-62.25Q95,-61.7 95,-61.1L95,-59.3Q95,-58.6 94.45,-58.1Q93.9,-57.6 93.3,-57.6L79.3,-57.6Q76.1,-45.9 71.3,-36.35Q66.5,-26.8 59.3,-19Q73.1,-10.5 94.4,-6.8Q95.6,-6.6 95.9,-6Q96.2,-5.4 95.6,-4Q95.1,-2.9 94.2,-1.4Q93.3,0.1 92.3,1.5Q91.3,2.9 90.35,4.15Q89.4,5.4 88.8,6Q87.7,7.1 86.5,7.6Q85.3,8.1 83.8,7.6Q72.8,4.4 64.25,0.3Q55.7,-3.8 49.1,-9.6Q41,-3.4 30.4,1.35Q19.8,6.1 6.1,9.7Q5.6,9.8 5.15,9.3Q4.7,8.8 4.45,8.15Q4.2,7.5 4.25,6.8Q4.3,6.1 4.8,5.9Q15.4,0.5 24.5,-5.2Q33.6,-10.9 41.1,-17.9Q35.3,-25.4 31.25,-35.1Q27.2,-44.8 24.4,-57.6L7.3,-57.6Q6.6,-57.6 6.1,-58.1Q5.6,-58.6 5.6,-59.3L5.6,-61.1ZM27.6,-57.6Q31.8,-47.9 37,-40.25Q42.2,-32.6 49,-26.5Q54.1,-32.9 57.85,-40.55Q61.6,-48.2 63.9,-57.6L27.6,-57.6Z"></path><path transform="translate(200 100)" d="M9.4,-74Q9.4,-75.9 10.7,-76.7Q12,-77.5 13.9,-77.5L17.1,-77.5Q19,-77.5 20.3,-76.7Q21.6,-75.9 21.6,-74L21.6,-73.6L79.1,-73.6Q79.1,-75.6 80.2,-76.55Q81.3,-77.5 84,-77.5L86.9,-77.5Q89.4,-77.5 90.55,-76.4Q91.7,-75.3 91.7,-73.5L91.7,-8Q91.7,-4.9 91.5,-2.55Q91.3,-0.2 90.75,1.6Q90.2,3.4 89.15,4.8Q88.1,6.2 86.4,7.4Q84.8,8.5 82.15,9.5Q79.5,10.5 77,10.8Q75.8,11 75.05,11.05Q74.3,11.1 73.75,10.95Q73.2,10.8 72.8,10.4Q72.4,10 71.8,9.2Q70.6,7.6 69.3,5.35Q68,3.1 67.4,1.9Q66.9,0.8 66.95,-0.05Q67,-0.9 68.7,-1.1Q70,-1.3 71.2,-1.6Q72.3,-1.8 73.35,-2Q74.4,-2.2 75,-2.4Q77.4,-2.9 78.25,-4.45Q79.1,-6 79.1,-9.2L79.1,-68L21.6,-68L21.6,-5.8Q25.2,-13.2 28.05,-20.4Q30.9,-27.6 33.2,-35.2Q31.4,-39.3 29.35,-43.5Q27.3,-47.7 25.2,-52.1Q24.8,-53 24.95,-53.35Q25.1,-53.7 25.7,-54.2Q26.4,-54.7 26.8,-54.55Q27.2,-54.4 27.7,-53.8Q29.8,-51.5 31.8,-49.05Q33.8,-46.6 35.7,-44.3Q36.6,-47.9 37.35,-51.7Q38.1,-55.5 38.8,-59.6Q39,-61.2 39.8,-61.65Q40.6,-62.1 42,-61.8Q43.7,-61.3 45.3,-60.8Q46.9,-60.3 48,-59.8Q49.3,-59.1 49.7,-58.55Q50.1,-58 49.6,-55.9Q48.5,-50.8 46.9,-45.35Q45.3,-39.9 43.1,-34.3Q45.4,-31.1 47.05,-28.5Q48.7,-25.9 49.5,-24.4Q50.6,-22.3 50.6,-20.95Q50.6,-19.6 49.7,-17.1Q49.1,-15.4 48.35,-14.25Q47.6,-13.1 46.5,-12Q45.3,-10.7 43.75,-10.85Q42.2,-11 41.4,-13.9Q40.8,-16.1 40,-18.4Q39.2,-20.7 38.3,-23.2Q34.9,-16.4 30.95,-10.65Q27,-4.9 22.5,-0.9Q22.1,-0.5 21.6,-0.7L21.6,6.3Q21.6,8.2 20.3,8.9Q19,9.6 17.1,9.6L13.9,9.6Q12,9.6 10.7,8.9Q9.4,8.2 9.4,6.3L9.4,-74ZM50.5,-50.8Q50,-51.6 50.15,-52Q50.3,-52.4 51,-52.9Q52,-53.7 52.9,-52.4Q54.6,-50.2 56.45,-47.85Q58.3,-45.5 60.1,-43.1Q61.2,-47.3 62,-51.35Q62.8,-55.4 63.5,-59.3Q63.8,-60.9 64.55,-61.35Q65.3,-61.8 66.7,-61.4Q68.5,-60.9 70.05,-60.4Q71.6,-59.9 72.7,-59.4Q73.4,-59 73.8,-58.75Q74.2,-58.5 74.4,-58.1Q74.6,-57.7 74.55,-57.1Q74.5,-56.5 74.3,-55.5Q73.3,-51 71.55,-45.2Q69.8,-39.4 67.5,-33.2Q70.4,-29 72.55,-25.65Q74.7,-22.3 75.5,-20.6Q76.5,-18.5 76.55,-17.15Q76.6,-15.8 75.7,-13.3Q75.1,-11.6 74.35,-10.45Q73.6,-9.3 72.5,-8.2Q71.3,-6.9 69.9,-6.9Q68.5,-6.9 67.5,-9.7Q66.7,-12 65.45,-15.2Q64.2,-18.4 62.8,-22.2Q59.3,-14.9 55.3,-8.75Q51.3,-2.6 46.9,0.9Q46.5,1.2 46,1.05Q45.5,0.9 45.1,0.5Q44.7,0.1 44.55,-0.4Q44.4,-0.9 44.6,-1.3Q48.7,-8.8 51.95,-17.2Q55.2,-25.6 57.8,-34.4Q56,-38.6 54.15,-42.8Q52.3,-47 50.5,-50.8Z"></path><path transform="translate(300 100)" d="M21.3,-48.4Q21.3,-49.2 21.9,-49.7Q22.5,-50.2 23.3,-50.2L62.9,-50.2L63.8,-51.9Q64.7,-53.9 66.1,-54.1Q67.5,-54.3 69.3,-53.2Q70.8,-52.3 72.35,-51.2Q73.9,-50.1 74.8,-49.3Q77.5,-46.8 74.5,-44.3Q73.4,-43.3 71.2,-41.75Q69,-40.2 66.5,-38.65Q64,-37.1 61.55,-35.75Q59.1,-34.4 57.4,-33.8L57.4,-33.2L57.4,-25.6L92.7,-25.6Q93.5,-25.6 94.1,-25.1Q94.7,-24.6 94.7,-23.8L94.7,-22.2Q94.7,-21.4 94.1,-20.9Q93.5,-20.4 92.7,-20.4L57.4,-20.4L57.4,-6.8Q57.4,-4.5 57.25,-2.1Q57.1,0.3 56.3,2.4Q55.5,4.5 53.9,6.2Q52.3,7.9 49.5,8.7Q48.1,9.1 46.45,9.3Q44.8,9.5 42.6,9.6Q40.4,9.7 39.45,9.35Q38.5,9 37.6,7.4Q36.7,5.9 35.9,4.25Q35.1,2.6 34.1,0.5Q33.6,-0.6 33.8,-1.35Q34,-2.1 35.3,-2.3Q37,-2.5 38.35,-2.65Q39.7,-2.8 41.2,-3.2Q43.1,-3.6 43.95,-4.85Q44.8,-6.1 44.8,-9.1L44.8,-20.4L7.8,-20.4Q7,-20.4 6.4,-20.9Q5.8,-21.4 5.8,-22.2L5.8,-23.8Q5.8,-24.6 6.4,-25.1Q7,-25.6 7.8,-25.6L44.8,-25.6L44.8,-33.2Q44.8,-35 45.55,-36.05Q46.3,-37.1 49.1,-37.1L53,-37.1Q54.2,-37.1 55,-36.8Q56.4,-38.9 57.7,-41.05Q59,-43.2 60.1,-45.2L23.3,-45.2Q22.5,-45.2 21.9,-45.75Q21.3,-46.3 21.3,-47.1L21.3,-48.4ZM77.6,-63.2L21.4,-63.2Q21.1,-59.7 20.25,-57Q19.4,-54.3 18,-52.6Q15,-49.1 12,-52.2Q9.3,-54.8 8,-58Q7.2,-59.9 7.55,-61.25Q7.9,-62.6 9.8,-64.1Q12.6,-66.4 14.2,-68.7Q15.8,-71 17.5,-74Q17.7,-74.4 18.3,-74.5Q18.9,-74.6 19.55,-74.45Q20.2,-74.3 20.7,-73.95Q21.2,-73.6 21.3,-73.2Q21.6,-70.5 21.6,-68.1L47.1,-68.1L47.1,-68.2Q45.8,-70.3 43.9,-72.95Q42,-75.6 40.3,-77.6Q40,-77.9 40.1,-78.45Q40.2,-79 40.5,-79.5Q40.8,-80 41.25,-80.35Q41.7,-80.7 42.1,-80.6Q43.9,-80.4 45.8,-80.05Q47.7,-79.7 49.55,-79.25Q51.4,-78.8 53.1,-78.25Q54.8,-77.7 56,-77.1Q58,-76.1 58.25,-74.75Q58.5,-73.4 57.6,-71.8Q56.9,-70.7 56.15,-69.75Q55.4,-68.8 54.8,-68.1L79.2,-68.1L79.8,-69.9Q80.5,-72.2 81.9,-72.65Q83.3,-73.1 85.4,-72.1Q87.1,-71.3 88.35,-70.45Q89.6,-69.6 91.3,-68.5Q93.2,-67.2 93.25,-65.7Q93.3,-64.2 92,-63Q89.7,-60.7 85.8,-57.8Q81.9,-54.9 77.8,-52.7Q77.3,-52.5 76.7,-52.7Q76.1,-52.9 75.55,-53.35Q75,-53.8 74.75,-54.4Q74.5,-55 74.8,-55.6L77.6,-63.2Z"></path><path transform="translate(400 100)" d="M34,-46.9Q34,-47.7 34.55,-48.3Q35.1,-48.9 35.9,-48.9L57.9,-48.9L57.9,-76.5Q57.9,-77.6 58.85,-78.55Q59.8,-79.5 60.9,-79.5L68.1,-79.5Q69.2,-79.5 70.15,-78.55Q71.1,-77.6 71.1,-76.5L71.1,-48.9L92.6,-48.9Q93.4,-48.9 94,-48.3Q94.6,-47.7 94.6,-46.9L94.6,-44.3Q94.6,-43.5 94,-42.95Q93.4,-42.4 92.6,-42.4L71.1,-42.4L71.1,6.6Q71.1,7.7 70.15,8.65Q69.2,9.6 68.1,9.6L60.9,9.6Q59.8,9.6 58.85,8.65Q57.9,7.7 57.9,6.6L57.9,-42.4L35.9,-42.4Q35.1,-42.4 34.55,-42.95Q34,-43.5 34,-44.3L34,-46.9ZM14.9,-49.9Q14.9,-51 15.85,-51.95Q16.8,-52.9 17.9,-52.9L24.3,-52.9Q25.4,-52.9 26.35,-51.95Q27.3,-51 27.3,-49.9L27.3,-14.6L40.3,-22.7Q40.6,-22.9 41.25,-22.65Q41.9,-22.4 42.4,-21.95Q42.9,-21.5 43.1,-20.9Q43.3,-20.3 42.9,-19.7Q40.6,-16.7 37.7,-13.25Q34.8,-9.8 31.8,-6.5Q28.8,-3.2 25.85,-0.2Q22.9,2.8 20.5,5Q19,6.5 17.6,6.65Q16.2,6.8 15,5.3Q14.5,4.6 13.2,2.7Q11.9,0.8 11.3,-0.7Q10.5,-2.3 10.75,-3.55Q11,-4.8 12.6,-5.6L14.9,-7L14.9,-43.2L7.2,-43.2Q6.4,-43.2 5.8,-43.8Q5.2,-44.4 5.2,-45.2L5.2,-46.6Q5.2,-47.4 5.8,-47.95Q6.4,-48.5 7.2,-48.5L14.9,-48.5L14.9,-49.9ZM12.8,-76.2Q12.4,-76.8 12.55,-77.4Q12.7,-78 13.15,-78.45Q13.6,-78.9 14.15,-79.15Q14.7,-79.4 15.2,-79.3Q17,-78.8 19.1,-77.9Q21.2,-77 23.15,-75.95Q25.1,-74.9 26.7,-73.85Q28.3,-72.8 29.1,-72Q30.8,-70.3 31.1,-68.85Q31.4,-67.4 30.6,-65.4Q30.2,-64.5 29.4,-63.1Q28.6,-61.7 27.4,-60.6Q26.5,-59.7 25.45,-59.2Q24.4,-58.7 23.35,-58.7Q22.3,-58.7 21.45,-59.4Q20.6,-60.1 20,-61.6Q18.6,-65.3 17,-68.65Q15.4,-72 12.8,-76.2Z"></path><path transform="translate(500 100)" d="M7.4,-46.2Q6.6,-46.1 5.95,-46.65Q5.3,-47.2 5.2,-48L5,-49.9Q4.9,-50.7 5.45,-51.3Q6,-51.9 6.8,-52L17.9,-53.4Q17.9,-54.5 17.85,-55.65Q17.8,-56.8 17.8,-58L17.4,-76.4Q17.3,-77.5 18.1,-78.45Q18.9,-79.4 20,-79.4L26.3,-79.4Q27.4,-79.4 28.2,-78.45Q29,-77.5 29,-76.4Q29,-74.7 29.05,-72.25Q29.1,-69.8 29.15,-67.2Q29.2,-64.6 29.25,-62.1Q29.3,-59.6 29.4,-57.9Q29.4,-57.1 29.45,-56.4Q29.5,-55.7 29.5,-54.9L53,-57.9Q54.9,-58.1 55.1,-56.2L55.3,-54.5Q55.4,-53.7 54.9,-53.05Q54.4,-52.4 53.6,-52.3L29.8,-49.1Q30.2,-42 30.9,-36.3Q31.6,-30.6 33.1,-25.8Q35.8,-29.6 37.9,-33.7Q40,-37.8 41.9,-42.4Q42.7,-44.4 43.9,-44.7Q45.1,-45 47.1,-44.3Q48.5,-43.8 49.3,-43.35Q50.1,-42.9 51.3,-42.3Q53.5,-41.2 53.7,-39.9Q53.9,-38.6 52.8,-36.5Q49.8,-31.1 46.2,-25.95Q42.6,-20.8 38.1,-16Q41.1,-12 45.8,-8.65Q50.5,-5.3 57.5,-2.1Q59.9,-0.6 58.4,1.6Q57.1,3.7 56.15,5Q55.2,6.3 53.4,8.3Q51.2,10.5 48.8,9.3Q41.9,5.9 37,1.75Q32.1,-2.4 28.7,-7.5Q23.9,-3.8 18.3,-0.55Q12.7,2.7 6.1,5.5Q5.6,5.7 5.1,5.3Q4.6,4.9 4.3,4.3Q4,3.7 3.9,3.1Q3.8,2.5 4.2,2.2Q10.7,-2.7 15.65,-7Q20.6,-11.3 24.5,-15.4Q21.4,-22.4 20.05,-30.45Q18.7,-38.5 18.2,-47.6L7.4,-46.2ZM87,-79.5Q89.3,-79.3 90.2,-78.5Q91.1,-77.7 91.1,-76.2L91.1,-4.7Q91.1,0.7 89.9,3.55Q88.7,6.4 85.3,8Q83.9,8.6 82,8.9Q80.1,9.2 77.8,9.6Q75.7,9.9 75.05,9.4Q74.4,8.9 73.4,7.5Q72.3,6 71.5,4.5Q70.7,3 69.8,1.1Q69.3,0.2 69.55,-0.55Q69.8,-1.3 71.1,-1.5Q71.7,-1.6 72.4,-1.7Q73.7,-1.9 74.8,-2.2Q77.7,-2.7 78.6,-3.9Q79.5,-5.1 79.5,-8.1L79.5,-76.2Q79.5,-77.9 80.55,-78.8Q81.6,-79.7 83.9,-79.5L87,-79.5ZM70.9,-16.5Q70.9,-15.4 69.95,-14.45Q69,-13.5 67.9,-13.5L63,-13.5Q61.9,-13.5 60.95,-14.45Q60,-15.4 60,-16.5L60,-66.2Q60,-67.3 60.95,-68.25Q61.9,-69.2 63,-69.2L67.9,-69.2Q69,-69.2 69.95,-68.25Q70.9,-67.3 70.9,-66.2L70.9,-16.5ZM48.8,-70.2Q50.2,-69 50.45,-67.75Q50.7,-66.5 49.9,-64.6Q49.6,-63.8 48.85,-62.45Q48.1,-61.1 47,-60.1Q45.5,-58.7 43.8,-58.75Q42.1,-58.8 41,-61.4Q39.7,-64.4 37.9,-67.3Q36.1,-70.2 33.7,-73.5Q33.5,-73.8 33.6,-74.3Q33.7,-74.8 34,-75.25Q34.3,-75.7 34.7,-76Q35.1,-76.3 35.5,-76.2Q36.7,-75.9 38.55,-75.25Q40.4,-74.6 42.4,-73.7Q44.4,-72.8 46.15,-71.85Q47.9,-70.9 48.8,-70.2Z"></path><path transform="translate(0 200)" d="M0.8,-68.3Q0.7,-67.2 1.3,-66.2Q1.8,-65.3 2.9,-65.3L25.7,-65.3L25.7,-1.4Q25.7,0.3 26.7,1.6Q27.9,2.7 29.6,2.7L34.7,2.7Q36.3,2.7 37.4,1.7Q38.7,0.4 38.7,-1.4L38.7,-65.3L61.5,-65.3Q62.6,-65.3 63.1,-66.2Q63.6,-67.2 63.6,-68.3Q63.7,-69.6 63,-70.6Q62.4,-71.3 61.5,-71.3L2.9,-71.3Q2,-71.3 1.4,-70.6Q0.7,-69.6 0.8,-68.3Z"></path><path transform="translate(64 200)" d="M6.4,-68.3L6.4,-1Q6.3,0.6 7.2,1.8Q8.4,2.8 9.9,2.7L15.3,2.7Q16.8,2.8 17.9,1.7Q18.7,0.5 18.6,-1L18.6,-34.6Q21,-39.7 25.5,-43.2Q27.5,-44.8 29.8,-45.7Q31.3,-46.3 32.9,-46.4Q35.5,-46.4 37.9,-45.5Q39.9,-44.6 41.2,-42.9Q42.2,-41.3 42.7,-39.6Q43.4,-36.5 43.4,-33.3L43.4,-1Q43.3,0.6 44.2,1.8Q45.4,2.8 46.9,2.7L52.3,2.7Q53.8,2.8 54.9,1.7Q55.7,0.5 55.6,-1L55.6,-30Q55.6,-35.1 54.5,-40.1Q53.5,-44.1 50.8,-47.3Q47.9,-50.3 43.9,-51.4Q40.1,-52.4 36.2,-52.4Q30.8,-52.2 26.2,-49.5Q21.6,-46.8 18.6,-42.5L18.6,-68.3Q18.7,-70 17.6,-71.4Q16.5,-72.3 15.1,-72.3L10.4,-72.3Q8.8,-72.4 7.5,-71.4Q6.3,-70.1 6.4,-68.3Z"></path><path transform="translate(126 200)" d="M3.8,-24.4Q3.8,-19.1 5.3,-14Q7,-8.3 11.1,-4Q15.1,-0.1 20.4,1.8Q26.1,3.7 32,3.7Q39.7,3.7 46.5,0.1Q52.1,-3.2 55.4,-8.8Q56.2,-10.2 55.7,-11.6Q54.8,-13.3 53.1,-14.2Q51.7,-15.3 49.9,-15.3Q48.3,-15 47.5,-13.6Q44.4,-8.5 40,-4.7Q36.3,-1.7 31.6,-1.5Q28.7,-1.5 26.2,-2.8Q22.9,-4.6 20.7,-7.7Q16.3,-14.4 16.2,-22.4L48.1,-22.4Q50,-22.4 51.8,-22.7Q53.2,-23 54.4,-23.9Q55.5,-24.9 55.9,-26.3Q56.3,-27.6 56.3,-29Q56.4,-33.8 54.6,-38.2Q52.5,-42.7 48.9,-46Q44.9,-49.5 39.8,-51.1Q35.5,-52.3 31,-52.4Q25.4,-52.3 20.1,-50.5Q15,-48.6 11.1,-44.8Q7,-40.5 5.3,-34.8Q3.8,-29.7 3.8,-24.4ZM16.2,-27.4Q16.2,-31.1 17.1,-34.7Q18,-38.3 20,-41.5Q22,-44.4 25.1,-46.2Q27.7,-47.3 30.6,-47.4Q37.4,-47.4 41.1,-41.6Q42.8,-38.5 43.5,-34.9Q44.2,-31.2 44.2,-27.4L16.2,-27.4Z"></path><path transform="translate(187 200)" d=""></path><path transform="translate(217 200)" d="M7.2,-65.1L7.2,-1.3Q7.2,0.3 8.2,1.6Q9.4,2.7 11.1,2.7L16.2,2.7Q17.8,2.7 18.9,1.7Q20.2,0.4 20.2,-1.4L20.2,-26.1L36,-26.1Q41.5,-26.1 46.9,-27.3Q52,-28.5 56.1,-31.5Q60.3,-34.8 62.2,-39.8Q63.6,-44.3 63.7,-49.1Q63.6,-53.7 62.2,-58Q60.4,-62.7 56.5,-65.9Q52.5,-68.8 47.7,-70.1Q42.7,-71.3 37.5,-71.3L13,-71.3Q10.4,-71.4 8.6,-69.6Q7.1,-67.6 7.2,-65.1ZM20.2,-65.2L32.3,-65.2Q37.2,-65.3 41.9,-64.2Q44.4,-63.5 46.5,-62Q48.9,-59.9 49.8,-56.8Q50.8,-52.9 50.7,-48.8Q50.7,-45 49.8,-41.4Q48.9,-37.8 46.2,-35.4Q43.5,-33.3 40.2,-32.7Q36.3,-32 32.3,-32.1L20.2,-32.1L20.2,-65.2Z"></path><path transform="translate(285 200)" d="M6.4,-47.4L6.4,-1Q6.3,0.6 7.2,1.8Q8.4,2.8 9.9,2.7L15.3,2.7Q16.8,2.8 17.9,1.7Q18.7,0.5 18.6,-1L18.6,-36.9Q20.1,-40.6 22.8,-43.5Q24.7,-45.6 27.5,-45.9Q28.9,-45.8 30.1,-45.1Q32.1,-43.7 33.7,-42Q34.2,-41.6 34.8,-41.5Q35.9,-41.5 37,-41.8Q39.8,-42.5 41.9,-44.3Q43.3,-45.4 43.4,-47.1Q43.1,-48.7 41.7,-49.8Q40.1,-51.2 38.1,-51.8Q35.4,-52.5 32.7,-52.4Q28.5,-52.3 24.9,-50Q20.9,-47.5 18.6,-43.5L18.6,-47.4Q18.7,-49.1 17.6,-50.5Q16.5,-51.4 15.1,-51.4L10.4,-51.4Q8.8,-51.5 7.5,-50.5Q6.3,-49.2 6.4,-47.4Z"></path><path transform="translate(329 200)" d="M3.8,-24.4Q3.8,-18.8 5.4,-13.5Q7.3,-7.8 11.5,-3.5Q15.5,0.2 20.6,2Q25.6,3.7 30.9,3.7Q36.4,3.6 41.7,1.9Q46.8,-0 50.7,-3.8Q54.8,-8.1 56.6,-13.8Q58,-19 58.1,-24.4Q58,-30 56.4,-35.4Q54.5,-41.2 50.1,-45.4Q46.1,-49 40.9,-50.8Q36,-52.3 30.9,-52.4Q25.6,-52.3 20.6,-50.6Q15.5,-48.8 11.5,-45Q7.3,-40.8 5.4,-35.1Q3.8,-29.9 3.8,-24.4ZM16,-24.4Q16,-28.7 16.8,-32.9Q17.7,-37.3 20,-41.1Q22,-44 25,-45.9Q27.8,-47.3 30.9,-47.4Q34.1,-47.3 36.8,-45.9Q39.9,-44 41.8,-41.1Q44.2,-37.3 45.1,-32.9Q45.9,-28.7 45.9,-24.4Q45.9,-20.1 45.1,-15.9Q44.2,-11.5 41.8,-7.7Q39.9,-4.8 36.8,-3Q34,-1.6 30.9,-1.5Q27.8,-1.5 25,-3Q22,-4.8 20,-7.7Q17.7,-11.5 16.8,-15.9Q16,-20.1 16,-24.4Z"></path><path transform="translate(391 200)" d="M5.5,-66.1Q5.5,-64.3 5.8,-62.6Q6.1,-61.8 6.6,-61.1Q7.5,-60.2 8.7,-60Q10.5,-59.8 12.3,-59.8Q14,-59.8 15.7,-60.1Q16.8,-60.3 17.6,-61.2Q18.2,-61.9 18.4,-62.7Q18.7,-64.4 18.7,-66.1Q18.7,-67.8 18.4,-69.4Q18.2,-70.3 17.6,-71Q16.8,-71.8 15.7,-72.1Q14,-72.4 12.3,-72.4Q10.6,-72.4 8.9,-72.1Q7.7,-71.8 6.7,-71Q6.2,-70.3 5.9,-69.4Q5.5,-67.8 5.5,-66.1ZM-9.1,19.8Q-9.3,22 -7.3,22.8Q-7,23 -6.7,23.1Q-3,24.5 0.9,24.6Q4.4,24.6 7.9,23.9Q11.4,23.1 14.1,20.9Q16.4,18.5 17.3,15.3Q18.2,11.3 18.2,7.1L18.2,-47.3Q18.2,-49 17.2,-50.3Q16,-51.4 14.3,-51.4L10,-51.4Q8.4,-51.4 7.3,-50.4Q6,-49.1 6,-47.3L6,6.2Q6,9 5.6,11.9Q5.3,14 4.4,15.9Q2.8,18.8 -0.6,18.8Q-2.5,18.7 -4.4,18.1Q-5.7,17.7 -7,17.5Q-8,17.4 -8.7,17.9Q-9.2,18.8 -9.1,19.8Z"></path><path transform="translate(416 200)" d="M3.8,-24.4Q3.8,-19.1 5.3,-14Q7,-8.3 11.1,-4Q15.1,-0.1 20.4,1.8Q26.1,3.7 32,3.7Q39.7,3.7 46.5,0.1Q52.1,-3.2 55.4,-8.8Q56.2,-10.2 55.7,-11.6Q54.8,-13.3 53.1,-14.2Q51.7,-15.3 49.9,-15.3Q48.3,-15 47.5,-13.6Q44.4,-8.5 40,-4.7Q36.3,-1.7 31.6,-1.5Q28.7,-1.5 26.2,-2.8Q22.9,-4.6 20.7,-7.7Q16.3,-14.4 16.2,-22.4L48.1,-22.4Q50,-22.4 51.8,-22.7Q53.2,-23 54.4,-23.9Q55.5,-24.9 55.9,-26.3Q56.3,-27.6 56.3,-29Q56.4,-33.8 54.6,-38.2Q52.5,-42.7 48.9,-46Q44.9,-49.5 39.8,-51.1Q35.5,-52.3 31,-52.4Q25.4,-52.3 20.1,-50.5Q15,-48.6 11.1,-44.8Q7,-40.5 5.3,-34.8Q3.8,-29.7 3.8,-24.4ZM16.2,-27.4Q16.2,-31.1 17.1,-34.7Q18,-38.3 20,-41.5Q22,-44.4 25.1,-46.2Q27.7,-47.3 30.6,-47.4Q37.4,-47.4 41.1,-41.6Q42.8,-38.5 43.5,-34.9Q44.2,-31.2 44.2,-27.4L16.2,-27.4Z"></path><path transform="translate(477 200)" d="M3.8,-23.3Q3.8,-18.5 5.1,-13.9Q6.8,-8.5 10.6,-4.3Q14.4,-0.3 19.6,1.7Q25.4,3.7 31.5,3.7Q39.8,3.8 46.8,-0.5Q52.7,-4.3 55.4,-10.8Q56.3,-12.8 55.3,-14.6Q53.8,-16.3 51.6,-17Q49.5,-17.9 47.2,-17.5Q46.4,-17.2 45.9,-16.5Q45.3,-15.6 44.9,-14.6Q43,-9.3 39.3,-5.1Q35.9,-1.6 31.1,-1.5Q28.2,-1.6 25.6,-2.9Q22.6,-4.5 20.5,-7.3Q18,-10.8 16.9,-15Q16,-19.1 16,-23.3Q16,-27.4 16.7,-31.5Q17.5,-36 19.7,-40Q21.6,-43.3 24.7,-45.5Q27.7,-47.4 31.3,-47.4Q35.7,-47.4 38.9,-44.2Q40.6,-42.4 41.8,-40.1Q43,-37.6 43.8,-34.9Q44.4,-33 46.3,-32.5Q48.6,-32 50.8,-32.7Q52.9,-33.1 54.5,-34.4Q55.8,-35.7 55.3,-37.5Q53.4,-44.7 47,-48.6Q43.2,-50.7 39,-51.7Q35.3,-52.4 31.5,-52.4Q26.1,-52.3 20.9,-50.8Q15.2,-49 11,-44.6Q7.2,-40.4 5.5,-35Q3.8,-29.3 3.8,-23.3Z"></path><path transform="translate(538 200)" d="M0.8,-49Q0.7,-47.9 1.4,-47Q2,-46.4 2.9,-46.4L9.5,-46.4L9.5,-13.8Q9.4,-9.6 10.4,-5.6Q11.3,-2.4 13.6,-0Q16.3,2.3 19.8,3Q23.3,3.7 26.8,3.7Q30.7,3.6 34.4,2.2Q36.9,1.5 36.8,-1.1Q36.9,-2.1 36.4,-3Q35.7,-3.5 34.7,-3.4Q33.6,-3.3 32.5,-2.9Q30.5,-2.2 28.3,-2.1Q24.9,-2.1 23.3,-5Q22.4,-6.9 22.1,-9Q21.7,-11.9 21.7,-14.7L21.7,-46.4L31.6,-46.4Q32.5,-46.4 33.1,-47Q33.8,-47.9 33.7,-49Q33.8,-51.2 31.6,-51.4L21.7,-51.4L21.7,-64.4Q21.7,-66.2 20.4,-67.5Q19.3,-68.5 17.7,-68.5L13.4,-68.5Q11.7,-68.5 10.5,-67.4Q9.5,-66.1 9.5,-64.4L9.5,-51.4L2.9,-51.4Q0.7,-51.2 0.8,-49Z"></path><path transform="translate(573 200)" d=""></path><path transform="translate(603 200)" d="M7.2,-65.3L7.2,-1.4Q7.2,0.3 8.2,1.6Q9.4,2.7 11.1,2.7L16.2,2.7Q17.8,2.7 18.9,1.7Q20.2,0.4 20.2,-1.4L20.2,-31.8L51.8,-31.8Q52.9,-31.8 53.4,-32.7Q54,-33.7 53.9,-34.9Q54,-36.1 53.3,-37.2Q52.7,-37.8 51.8,-37.8L20.2,-37.8L20.2,-65.3L56.7,-65.3Q57.8,-65.3 58.3,-66.2Q58.8,-67.2 58.8,-68.3Q58.9,-69.6 58.2,-70.6Q57.6,-71.3 56.7,-71.3L13.2,-71.3Q10.7,-71.4 8.8,-69.7Q7.1,-67.8 7.2,-65.3Z"></path><path transform="translate(665 200)" d="M3.8,-24.4Q3.8,-18.8 5.4,-13.5Q7.3,-7.8 11.5,-3.5Q15.5,0.2 20.6,2Q25.6,3.7 30.9,3.7Q36.4,3.6 41.7,1.9Q46.8,-0 50.7,-3.8Q54.8,-8.1 56.6,-13.8Q58,-19 58.1,-24.4Q58,-30 56.4,-35.4Q54.5,-41.2 50.1,-45.4Q46.1,-49 40.9,-50.8Q36,-52.3 30.9,-52.4Q25.6,-52.3 20.6,-50.6Q15.5,-48.8 11.5,-45Q7.3,-40.8 5.4,-35.1Q3.8,-29.9 3.8,-24.4ZM16,-24.4Q16,-28.7 16.8,-32.9Q17.7,-37.3 20,-41.1Q22,-44 25,-45.9Q27.8,-47.3 30.9,-47.4Q34.1,-47.3 36.8,-45.9Q39.9,-44 41.8,-41.1Q44.2,-37.3 45.1,-32.9Q45.9,-28.7 45.9,-24.4Q45.9,-20.1 45.1,-15.9Q44.2,-11.5 41.8,-7.7Q39.9,-4.8 36.8,-3Q34,-1.6 30.9,-1.5Q27.8,-1.5 25,-3Q22,-4.8 20,-7.7Q17.7,-11.5 16.8,-15.9Q16,-20.1 16,-24.4Z"></path><path transform="translate(727 200)" d="M6.4,-47.4L6.4,-1Q6.3,0.6 7.2,1.8Q8.4,2.8 9.9,2.7L15.3,2.7Q16.8,2.8 17.9,1.7Q18.7,0.5 18.6,-1L18.6,-36.9Q20.1,-40.6 22.8,-43.5Q24.7,-45.6 27.5,-45.9Q28.9,-45.8 30.1,-45.1Q32.1,-43.7 33.7,-42Q34.2,-41.6 34.8,-41.5Q35.9,-41.5 37,-41.8Q39.8,-42.5 41.9,-44.3Q43.3,-45.4 43.4,-47.1Q43.1,-48.7 41.7,-49.8Q40.1,-51.2 38.1,-51.8Q35.4,-52.5 32.7,-52.4Q28.5,-52.3 24.9,-50Q20.9,-47.5 18.6,-43.5L18.6,-47.4Q18.7,-49.1 17.6,-50.5Q16.5,-51.4 15.1,-51.4L10.4,-51.4Q8.8,-51.5 7.5,-50.5Q6.3,-49.2 6.4,-47.4Z"></path><path transform="translate(771 200)" d=""></path><path transform="translate(801 200)" d="M1.9,-66.2L18,-2.5Q18.4,-1.2 19.1,-0Q19.8,1.2 20.9,1.9Q21.7,2.3 22.6,2.5Q24.2,2.8 25.9,2.7Q27.6,2.7 29.2,2.5Q30.5,2.3 31.6,1.7Q33.5,-0 34.1,-2.5L48.1,-55.6L62.1,-2.5Q62.5,-1 63.4,0.4Q63.9,1.1 64.6,1.7Q65.6,2.3 66.9,2.5Q68.5,2.7 70.1,2.7Q71.8,2.8 73.4,2.5Q74.2,2.3 74.9,1.9Q77.1,0.2 77.8,-2.5L93.9,-66.2Q94.2,-67.3 94.2,-68.4Q94.2,-69.4 93.6,-70.2Q92.2,-71.5 90.2,-71.3L85.5,-71.3Q82.2,-71.4 81.3,-68.2L68.7,-10.4L53.4,-68.8Q53,-70.3 51.7,-70.9Q49.9,-71.4 48.1,-71.3Q46.3,-71.4 44.5,-70.9Q43.2,-70.3 42.8,-68.8L27.5,-10.4L14.9,-68.2Q14,-71.4 10.7,-71.3L5.6,-71.3Q3.6,-71.5 2.2,-70.2Q1.6,-69.4 1.6,-68.4Q1.6,-67.3 1.9,-66.2Z"></path><path transform="translate(897 200)" d="M3.8,-24.4Q3.8,-19.1 5.3,-14Q7,-8.3 11.1,-4Q15.1,-0.1 20.4,1.8Q26.1,3.7 32,3.7Q39.7,3.7 46.5,0.1Q52.1,-3.2 55.4,-8.8Q56.2,-10.2 55.7,-11.6Q54.8,-13.3 53.1,-14.2Q51.7,-15.3 49.9,-15.3Q48.3,-15 47.5,-13.6Q44.4,-8.5 40,-4.7Q36.3,-1.7 31.6,-1.5Q28.7,-1.5 26.2,-2.8Q22.9,-4.6 20.7,-7.7Q16.3,-14.4 16.2,-22.4L48.1,-22.4Q50,-22.4 51.8,-22.7Q53.2,-23 54.4,-23.9Q55.5,-24.9 55.9,-26.3Q56.3,-27.6 56.3,-29Q56.4,-33.8 54.6,-38.2Q52.5,-42.7 48.9,-46Q44.9,-49.5 39.8,-51.1Q35.5,-52.3 31,-52.4Q25.4,-52.3 20.1,-50.5Q15,-48.6 11.1,-44.8Q7,-40.5 5.3,-34.8Q3.8,-29.7 3.8,-24.4ZM16.2,-27.4Q16.2,-31.1 17.1,-34.7Q18,-38.3 20,-41.5Q22,-44.4 25.1,-46.2Q27.7,-47.3 30.6,-47.4Q37.4,-47.4 41.1,-41.6Q42.8,-38.5 43.5,-34.9Q44.2,-31.2 44.2,-27.4L16.2,-27.4Z"></path><path transform="translate(958 200)" d="M6.4,-68.3L6.4,-1Q6.3,0.6 7.2,1.8Q8.4,2.8 9.9,2.7L15.3,2.7Q16.8,2.8 17.9,1.7Q18.7,0.5 18.6,-1L18.6,-7.3Q21.7,-2.5 26.5,0.8Q31.4,3.8 37.2,3.7Q41.2,3.6 45,2.4Q49.8,0.6 53.2,-3.2Q56.8,-7.3 58.5,-12.5Q60.4,-18.6 60.4,-25Q60.3,-29.9 59.3,-34.8Q57.9,-40.1 54.6,-44.5Q51.5,-48.3 47.1,-50.4Q42.5,-52.4 37.5,-52.4Q32,-52.5 27.1,-49.9Q22,-47 18.6,-42.2L18.6,-68.3Q18.7,-70 17.6,-71.4Q16.5,-72.3 15.1,-72.3L10.4,-72.3Q8.8,-72.4 7.5,-71.4Q6.3,-70.1 6.4,-68.3ZM19.2,-24.5Q19.2,-28.7 20.1,-32.8Q21,-37.1 23.4,-40.8Q25.4,-43.7 28.3,-45.6Q30.9,-47 33.9,-47.1Q37.1,-47 39.9,-45.2Q42.7,-43.1 44.6,-40Q46.6,-36.3 47.5,-32Q48.2,-28.4 48.2,-24.6Q48.3,-16.3 44.2,-9.1Q42.3,-6 39.4,-3.7Q36.9,-2 33.9,-1.8Q30.8,-1.9 28.1,-3.6Q25.1,-5.6 23.2,-8.6Q20.9,-12.4 20,-16.7Q19.2,-20.6 19.2,-24.5Z"></path></svg>